<svg width="90" height="41" viewBox="0 0 90 41" fill="none" xmlns="http://www.w3.org/2000/svg">
<rect y="0.0264893" width="90" height="40" rx="8" fill="#F5EDFF"/>
<path d="M22.0312 22.7257V23.7921H12.3516V22.7257H16.5234V20.6632H13.418V15.1788H14.7188V16.9132H19.6289V15.1788H20.9297V20.6632H17.8125V22.7257H22.0312ZM14.7188 19.6085H19.6289V17.9562H14.7188V19.6085ZM32.3789 20.4523V21.4835H28.3008V22.8898H27.0117V21.4835H22.7227V20.4523H32.3789ZM23.2031 16.3859V15.4015H26.8945V14.4054H28.1953V15.4015H31.8516V16.3859H23.2031ZM23.8828 24.8585V22.2101H25.1836V23.8273H31.3242V24.8585H23.8828ZM24.0234 18.3429C24.0234 17.2941 25.3066 16.7374 27.5391 16.7374C29.7715 16.7374 31.0605 17.2941 31.0664 18.3429C31.0605 19.3976 29.7715 19.9718 27.5391 19.9718C25.3066 19.9718 24.0234 19.3976 24.0234 18.3429ZM25.3594 18.3429C25.3477 18.8116 26.0684 19.0343 27.5391 19.0343C29.0098 19.0343 29.7363 18.8116 29.7305 18.3429C29.7363 17.88 29.0098 17.6515 27.5391 17.6515C26.0684 17.6515 25.3477 17.88 25.3594 18.3429ZM41.9648 14.4874V22.3038H40.6641V18.4015H38.5312V20.5812H33.5742V15.1788H34.875V16.8898H37.2422V15.1788H38.5312V17.3468H40.6641V14.4874H41.9648ZM34.875 19.5499H37.2422V17.8976H34.875V19.5499ZM34.9805 24.8585V21.5304H36.3047V23.8038H42.1992V24.8585H34.9805ZM52.6523 15.8937V16.9484H43.8984V15.8937H47.6367V14.6163H48.9258V15.8937H52.6523ZM43.4648 23.9327V22.8781H47.6367V21.5773C45.8086 21.4366 44.7012 20.6984 44.707 19.5265C44.7012 18.2491 46.0723 17.4874 48.2812 17.4874C50.4609 17.4874 51.8496 18.2491 51.8438 19.5265C51.8496 20.6925 50.7305 21.4308 48.9258 21.5773V22.8781H53.1445V23.9327H43.4648ZM46.043 19.5265C46.0371 20.2062 46.8398 20.5519 48.2812 20.5577C49.6934 20.5519 50.5078 20.2062 50.5078 19.5265C50.5078 18.8585 49.6934 18.5128 48.2812 18.507C46.8398 18.5128 46.0371 18.8585 46.043 19.5265ZM65.0742 14.4874V17.5695H66.5039V18.6476H65.0742V21.6476H63.7734V14.4874H65.0742ZM56.5898 20.382C57.3867 20.382 58.3066 20.3761 59.2617 20.3527V19.7023C58.084 19.5558 57.334 18.9874 57.3398 18.1554C57.334 17.1769 58.3594 16.5792 59.8945 16.5851C61.4355 16.5792 62.4492 17.1769 62.4492 18.1554C62.4492 18.9816 61.7227 19.5441 60.5625 19.6964V20.3058C61.4648 20.2589 62.373 20.1886 63.2227 20.0773L63.3281 20.9796C61.0723 21.3781 58.5938 21.4015 56.7305 21.4015L56.5898 20.382ZM56.8594 16.2804V15.3195H59.2617V14.3937H60.5625V15.3195H62.9414V16.2804H56.8594ZM57.9258 23.1241V22.1046H65.0742V25.0695H63.7734V23.1241H57.9258ZM58.5938 18.1554C58.582 18.5948 59.0742 18.8702 59.8945 18.8585C60.7148 18.8702 61.207 18.5948 61.207 18.1554C61.207 17.6925 60.7148 17.4581 59.8945 17.464C59.0742 17.4581 58.582 17.6925 58.5938 18.1554ZM75.8789 14.4874V22.1398H74.5664V14.4874H75.8789ZM67.2422 17.8273C67.2422 16.2863 68.4902 15.1847 70.1016 15.1788C71.7129 15.1847 72.9551 16.2863 72.9492 17.8273C72.9551 19.3917 71.7129 20.4874 70.1016 20.4874C68.4902 20.4874 67.2422 19.3917 67.2422 17.8273ZM68.5195 17.8273C68.5137 18.7648 69.1934 19.3507 70.1016 19.3507C70.9863 19.3507 71.6719 18.7648 71.6719 17.8273C71.6719 16.9132 70.9863 16.3156 70.1016 16.3156C69.1934 16.3156 68.5137 16.9132 68.5195 17.8273ZM68.8711 24.8585V21.3663H70.1836V23.8038H76.1719V24.8585H68.8711Z" fill="#673BB7"/>
</svg>
