<svg width="38" height="38" viewBox="0 0 38 38" fill="none" xmlns="http://www.w3.org/2000/svg">
<path fill-rule="evenodd" clip-rule="evenodd" d="M18.9477 19.1604C18.9684 19.1719 18.9861 19.1794 19 19.1842C19.0139 19.1794 19.0316 19.1719 19.0523 19.1604C19.07 19.1506 19.0858 19.14 19.0986 19.1304C19.1094 19.1223 19.1152 19.1169 19.1162 19.116L19.1162 19.116C19.1163 19.1159 19.1164 19.1158 19.1163 19.1159L19.15 19.0821L19.1865 19.0509L28.5792 11H19H9.42078L18.8135 19.0509L18.85 19.0821L18.8837 19.1159C18.8836 19.1158 18.8837 19.1159 18.8838 19.116L18.8838 19.116C18.8848 19.1169 18.8906 19.1223 18.9014 19.1304C18.9142 19.14 18.93 19.1506 18.9477 19.1604ZM18.6242 21.6587C18.7478 21.6789 18.8734 21.69 19 21.6915C19.1266 21.69 19.2522 21.6789 19.3758 21.6587C20.0195 21.554 20.5306 21.222 20.8433 20.9235L22.2621 19.7074L29.4934 26.9387C29.3356 26.9787 29.1703 27 29 27H19H9C8.82973 27 8.66444 26.9787 8.50663 26.9387L15.7379 19.7074L17.1567 20.9235C17.4694 21.222 17.9805 21.554 18.6242 21.6587ZM13.9676 18.19L7.00568 25.1519C7.00192 25.1017 7 25.0511 7 25V13C7 12.7611 7.0419 12.5319 7.11874 12.3195L13.9676 18.19ZM24.0324 18.19L30.9943 25.1519C30.9981 25.1017 31 25.0511 31 25V13C31 12.7611 30.9581 12.5319 30.8813 12.3195L24.0324 18.19Z" fill="#D2D6DB"/>
</svg>
