<svg width="66" height="40" viewBox="0 0 66 40" fill="none" xmlns="http://www.w3.org/2000/svg">
<rect width="66" height="40" rx="8" fill="#F5EDFF"/>
<path d="M17.8594 15.4922C17.8594 18.6914 16.9805 21.4336 13.0781 23.3789L12.3633 22.3945C14.1973 21.4863 15.2871 20.4316 15.9023 19.1719L12.6094 19.4883L12.4453 18.3633L16.3008 18.1172C16.4355 17.625 16.5176 17.1035 16.5586 16.5469H12.9961V15.4922H17.8594ZM20.6484 14.4492V18.5977H22.2188V19.6641H20.6484V25.0195H19.3477V14.4492H20.6484ZM31.3242 19.418V20.4609H23.8945V15.375H31.2422V16.4297H25.1836V19.418H31.3242ZM32.4023 22.6172V23.6953H22.7227V22.6172H32.4023ZM38.5664 15.9023C38.5664 17.543 40.1719 19.1836 42.3867 19.5703L41.8008 20.6602C40.0254 20.2852 38.5723 19.2129 37.8867 17.7891C37.1836 19.2012 35.7305 20.2793 33.9609 20.6602L33.3867 19.5703C35.5781 19.1719 37.1719 17.5312 37.1836 15.9023V15.1172H38.5664V15.9023ZM42.7734 22.6172V23.6953H33.0938V22.6172H42.7734ZM52.5234 14.4609V22.418H51.2812V18.6797H50.168V22.1016H48.9375V14.6602H50.168V17.6133H51.2812V14.4609H52.5234ZM52.8281 23.7773V24.832H45.3867V21.4688H46.6875V23.7773H52.8281ZM48.1523 15.3516C48.1523 18.0469 47.0508 20.0508 44.0859 21.3047L43.4648 20.3789C44.8008 19.8281 45.6855 19.1426 46.2305 18.3047L43.6992 18.5859L43.5234 17.5195L46.6875 17.3438C46.7754 17.0449 46.8398 16.7285 46.875 16.3945H43.9922V15.3516H48.1523Z" fill="#673BB7"/>
</svg>
