<svg width="52" height="50" viewBox="0 0 52 50" fill="none" xmlns="http://www.w3.org/2000/svg">
<path d="M8.5 49C10.9 49 11.5 46.6667 11.5 45.5V44.2956H40.5V45.5C40.5 47.9 42.5 48.8333 43.5 49H47.5C50.3 49 51 46.6667 51 45.5V13.5C51 4.3 42.6667 1.33333 38.5 1H13.5C4.3 1 1.33333 9.33333 1 13.5V45.5C1 48.3 3.33333 49 4.5 49H8.5Z" fill="#F3F4F6"/>
<path d="M11.5 44.2956C11.5 35.2573 11.5 18.5584 11.5 15.5C11.5 12.3 14.8333 11.1667 16.5 11C21.1667 11 31.5 11 35.5 11C39.5 11 40.5 14 40.5 15.5C40.5 23.5866 40.5 39.4234 40.5 44.2956M11.5 44.2956C11.5 44.7142 11.5 45.1164 11.5 45.5C11.5 46.6667 10.9 49 8.5 49C6.1 49 4.83333 49 4.5 49C3.33333 49 1 48.3 1 45.5C1 42.7 1 23 1 13.5C1.33333 9.33333 4.3 1 13.5 1C22.7 1 34 1 38.5 1C42.6667 1.33333 51 4.3 51 13.5C51 22.7 51 38.6667 51 45.5C51 46.6667 50.3 49 47.5 49C44.7 49 43.6667 49 43.5 49C42.5 48.8333 40.5 47.9 40.5 45.5C40.5 45.2564 40.5 44.846 40.5 44.2956M11.5 44.2956H40.5" stroke="#D2D6DB"/>
</svg>
