<svg width="52" height="50" viewBox="0 0 52 50" fill="none" xmlns="http://www.w3.org/2000/svg">
<path d="M8.5 49C10.9 49 11.5 46.6667 11.5 45.5V44.2956V15.5C11.5 12.3 14.8333 11.1667 16.5 11H35.5C39.5 11 40.5 14 40.5 15.5V44.2956V45.5C40.5 47.9 42.5 48.8333 43.5 49H47.5C50.3 49 51 46.6667 51 45.5V13.5C51 4.3 42.6667 1.33333 38.5 1H13.5C4.3 1 1.33333 9.33333 1 13.5V45.5C1 48.3 3.33333 49 4.5 49H8.5Z" fill="#0B6CB6" stroke="#063B62"/>
<path fill-rule="evenodd" clip-rule="evenodd" d="M40.5 44.2956V15.5C40.5 14 39.5 11 35.5 11H16.5C14.8333 11.1667 11.5 12.3 11.5 15.5V44.2956H40.5Z" fill="#0B6CB6"/>
<path d="M40.5 44.2956V44.7956H41V44.2956H40.5ZM16.5 11V10.5H16.4751L16.4502 10.5025L16.5 11ZM11.5 44.2956H11V44.7956H11.5V44.2956ZM40 15.5V44.2956H41V15.5H40ZM35.5 11.5C37.3581 11.5 38.4605 12.1886 39.1096 12.9998C39.776 13.8329 40 14.8415 40 15.5H41C41 14.6585 40.724 13.4171 39.8904 12.3752C39.0395 11.3114 37.6419 10.5 35.5 10.5V11.5ZM16.5 11.5H35.5V10.5H16.5V11.5ZM12 15.5C12 14.1064 12.7137 13.163 13.655 12.5267C14.6122 11.8797 15.7775 11.5747 16.5498 11.4975L16.4502 10.5025C15.5559 10.5919 14.2212 10.937 13.095 11.6983C11.9529 12.4703 11 13.6936 11 15.5H12ZM12 44.2956V15.5H11V44.2956H12ZM11.5 44.7956H40.5V43.7956H11.5V44.7956ZM41 15.5C41 14.6585 40.724 13.4171 39.8904 12.3752C39.0395 11.3114 37.6419 10.5 35.5 10.5V11.5C37.3581 11.5 38.4605 12.1886 39.1096 12.9998C39.776 13.8329 40 14.8415 40 15.5H41ZM16.4502 10.5025C15.5559 10.5919 14.2212 10.937 13.095 11.6983C11.9529 12.4703 11 13.6936 11 15.5H12C12 14.1064 12.7137 13.163 13.655 12.5267C14.6122 11.8797 15.7775 11.5747 16.5498 11.4975L16.4502 10.5025ZM41 44.2956V15.5H40V44.2956H41Z" fill="#063B62"/>
</svg>
