<svg width="66" height="40" viewBox="0 0 66 40" fill="none" xmlns="http://www.w3.org/2000/svg">
<rect width="66" height="40" rx="8" fill="#F5EDFF"/>
<path d="M21.2227 14.4609V22.1953H19.9219V18.3164H18.0469V17.2617H19.9219V14.4609H21.2227ZM21.4922 23.7773V24.832H14.2734V21.5156H15.5742V23.7773H21.4922ZM16.2422 16.5703C16.2422 17.8477 17.0977 19.1602 18.7383 19.6992L18.082 20.7422C16.8984 20.3379 16.0605 19.5352 15.5977 18.5273C15.1289 19.6465 14.2441 20.5312 12.9961 20.9648L12.3281 19.9102C14.0156 19.3594 14.918 17.9648 14.918 16.5586V16.2773H12.7148V15.2227H18.4336V16.2773H16.2422V16.5703ZM25.2188 15.1055C26.625 15.1055 27.6562 16.1602 27.6562 17.6602C27.6562 19.1719 26.625 20.2031 25.2188 20.2031C23.8125 20.2031 22.793 19.1719 22.793 17.6602C22.793 16.1602 23.8125 15.1055 25.2188 15.1055ZM25.2188 16.2188C24.4805 16.2188 23.9531 16.7695 23.9648 17.6602C23.9531 18.5391 24.4805 19.1133 25.2188 19.1016C25.9453 19.1133 26.4727 18.5391 26.4727 17.6602C26.4727 16.7695 25.9453 16.2188 25.2188 16.2188ZM31.7812 14.4609V20.7773H30.5391V18.1289H29.4961V20.707H28.2891V14.6602H29.4961V17.0859H30.5391V14.4609H31.7812ZM31.7812 21.2812V25.043H30.4805V22.3242H24.5273V21.2812H31.7812ZM36.9844 16.2656C36.9844 17.5547 37.8398 18.8555 39.4805 19.4062L38.8242 20.4141C37.6406 20.0273 36.8027 19.2246 36.3398 18.2344C35.877 19.3418 34.9922 20.2324 33.7383 20.6484L33.0703 19.6172C34.7578 19.0664 35.6602 17.6602 35.6602 16.2773V16.1367H33.457V15.0938H39.1758V16.1367H36.9844V16.2656ZM41.9648 21.2695V25.043H40.6641V22.3125H34.7461V21.2695H41.9648ZM41.9648 14.4492V20.7656H40.6641V18.1406H38.8594V17.0742H40.6641V14.4492H41.9648ZM53.1211 19.5469V20.5898H43.4648V19.5469H45.7148V18.1992C44.918 17.8652 44.4609 17.332 44.4609 16.6406C44.4609 15.375 45.9492 14.625 48.2812 14.625C50.6133 14.625 52.0898 15.375 52.1016 16.6406C52.0957 17.3379 51.6387 17.8711 50.8359 18.1992V19.5469H53.1211ZM48.2812 21.2344C50.5664 21.2227 51.9375 21.9023 51.9492 23.1211C51.9375 24.3516 50.5664 25.0195 48.2812 25.0195C45.9727 25.0195 44.5898 24.3516 44.5898 23.1211C44.5898 21.9023 45.9727 21.2227 48.2812 21.2344ZM48.2812 22.2188C46.7344 22.2188 45.9023 22.5234 45.9141 23.1211C45.9023 23.7188 46.7344 24.0352 48.2812 24.0352C49.793 24.0352 50.6367 23.7188 50.6484 23.1211C50.6367 22.5234 49.793 22.2188 48.2812 22.2188ZM48.2812 15.6328C46.7109 15.6328 45.8086 15.9844 45.8203 16.6406C45.8086 17.2852 46.7109 17.625 48.2812 17.625C49.8398 17.625 50.7539 17.2852 50.7539 16.6406C50.7539 15.9844 49.8398 15.6328 48.2812 15.6328ZM47.0273 19.5469H49.5352V18.5391C49.1543 18.5918 48.7324 18.6211 48.2812 18.6211C47.8301 18.6211 47.4082 18.5918 47.0273 18.5391V19.5469Z" fill="#673BB7"/>
</svg>
