<svg width="16" height="16" viewBox="0 0 16 16" fill="none" xmlns="http://www.w3.org/2000/svg">
<mask id="path-1-inside-1_589_9228" fill="white">
<path d="M10.5714 4.70593H5.42857H3.71429V9.64711C3.71429 10.1961 4.05714 11.2942 5.42857 11.2942H10.5714C11.1429 11.2942 12.2857 10.9648 12.2857 9.64711V4.70593H10.5714Z"/>
</mask>
<path d="M10.5714 4.70593H5.42857H3.71429V9.64711C3.71429 10.1961 4.05714 11.2942 5.42857 11.2942H10.5714C11.1429 11.2942 12.2857 10.9648 12.2857 9.64711V4.70593H10.5714Z" fill="white"/>
<path d="M12.2857 3.95593C11.8715 3.95593 11.5357 4.29172 11.5357 4.70593C11.5357 5.12015 11.8715 5.45593 12.2857 5.45593V3.95593ZM14 5.45593C14.4142 5.45593 14.75 5.12015 14.75 4.70593C14.75 4.29172 14.4142 3.95593 14 3.95593V5.45593ZM2 3.95593C1.58579 3.95593 1.25 4.29172 1.25 4.70593C1.25 5.12015 1.58579 5.45593 2 5.45593V3.95593ZM3.71429 5.45593C4.1285 5.45593 4.46429 5.12015 4.46429 4.70593C4.46429 4.29172 4.1285 3.95593 3.71429 3.95593V5.45593ZM12.2857 5.45593H14V3.95593H12.2857V5.45593ZM2 5.45593H3.71429V3.95593H2V5.45593ZM12.2857 4.70593H13.7857V3.20593H12.2857V4.70593ZM3.71429 4.70593V3.20593H2.21429V4.70593H3.71429ZM5.42857 6.20593H10.5714V3.20593H5.42857V6.20593ZM10.5714 6.20593H12.2857V3.20593H10.5714V6.20593ZM3.71429 6.20593H5.42857V3.20593H3.71429V6.20593ZM2.21429 4.70593V9.64711H5.21429V4.70593H2.21429ZM2.21429 9.64711C2.21429 10.1741 2.36605 10.9212 2.85679 11.5761C3.40212 12.3037 4.27879 12.7942 5.42857 12.7942V9.79417C5.35752 9.79417 5.31128 9.7871 5.28504 9.7813C5.2593 9.77561 5.24869 9.77025 5.24827 9.77005C5.24786 9.76984 5.25093 9.77146 5.2549 9.77484C5.25849 9.77788 5.25924 9.77933 5.2575 9.77699C5.25241 9.77021 5.23883 9.7481 5.22706 9.70852C5.2145 9.6663 5.21429 9.63871 5.21429 9.64711H2.21429ZM5.42857 12.7942H10.5714V9.79417H5.42857V12.7942ZM10.5714 12.7942C11.0854 12.7942 11.8319 12.6579 12.4962 12.1984C13.2397 11.6841 13.7857 10.8206 13.7857 9.64711H10.7857C10.7857 9.75262 10.7649 9.77275 10.7767 9.75077C10.7871 9.73139 10.7988 9.72471 10.7895 9.73115C10.7749 9.74126 10.7399 9.76009 10.6833 9.77562C10.6568 9.78288 10.6312 9.78786 10.6088 9.79088C10.5979 9.79235 10.5888 9.79321 10.5819 9.79368C10.575 9.79416 10.5714 9.79417 10.5714 9.79417V12.7942ZM13.7857 9.64711V4.70593H10.7857V9.64711H13.7857Z" fill="#D2D6DB" mask="url(#path-1-inside-1_589_9228)"/>
<path d="M7.25 14.9999C7.25 15.4142 7.58579 15.7499 8 15.7499C8.41421 15.7499 8.75 15.4142 8.75 14.9999H7.25ZM7.25 11.2941V14.9999H8.75V11.2941H7.25Z" fill="#D2D6DB"/>
<rect x="2" y="4.70001" width="12" height="1.5" rx="0.75" fill="#D2D6DB"/>
<rect x="4.57129" y="5.94116" width="4.94118" height="1.5" rx="0.75" transform="rotate(-90 4.57129 5.94116)" fill="#D2D6DB"/>
<rect x="9.71484" y="5.94116" width="4.94118" height="1.5" rx="0.75" transform="rotate(-90 9.71484 5.94116)" fill="#D2D6DB"/>
</svg>
