<svg width="38" height="38" viewBox="0 0 38 38" fill="none" xmlns="http://www.w3.org/2000/svg">
<path fill-rule="evenodd" clip-rule="evenodd" d="M8 9C9.65685 9 11 7.65685 11 6C11 4.34315 9.65685 3 8 3C6.34315 3 5 4.34315 5 6C5 7.65685 6.34315 9 8 9ZM26 11.5C26 12.8807 24.8807 14 23.5 14C22.1193 14 21 12.8807 21 11.5C21 10.1193 22.1193 9 23.5 9C24.8807 9 26 10.1193 26 11.5ZM5 21.5V11C5 10.2 6 10 6.5 10H8.5C8.81633 10 9.11582 10.1425 9.3153 10.3881L15.5 18H18L23 15C24 14.5 24.5 15.6667 24.5 16V20V21.5V22.1546C25.4455 22.7518 26.2482 23.5545 26.8454 24.5H30C30.5 24.5 31.6 24.8 32 26C32.4 27.2 33.458 31.5 33.937 33.5C33.9781 33.6598 34 33.8274 34 34C34 35.1046 33.1046 36 32 36C30.8954 36 30 35.1046 30 34L29 28H27.9836C27.9945 28.1653 28 28.332 28 28.5C28 32.6421 24.6421 36 20.5 36C16.3579 36 13 32.6421 13 28.5C13 25.4245 14.8511 22.7814 17.5 21.6241V21.5V20V19.5H15C14.2 19.5 13.6667 19.1667 13.5 19L10.5 15.5V22C10.5 22.8 9.83333 23 9.5 23V34C9.5 35.6 8.5 36 8 36C6.8 36 6.5 34.6667 6.5 34V23C5.3 23 5 22 5 21.5ZM20.5 34C23.5376 34 26 31.5376 26 28.5C26 25.631 23.8032 23.275 21 23.0224V28H18V23.5997C16.2192 24.5101 15 26.3627 15 28.5C15 31.5376 17.4624 34 20.5 34Z" fill="#D2D6DB"/>
</svg>
