<svg width="24" height="24" viewBox="0 0 24 24" fill="none" xmlns="http://www.w3.org/2000/svg">
<path fill-rule="evenodd" clip-rule="evenodd" d="M4 11.8864C4 7.53085 7.53085 4 11.8864 4C14.7945 4 17.3363 5.57406 18.704 7.91942H15.4564V9.41942H20.6382H21.3882V8.66942V3.4876H19.8882V6.97752C18.2376 4.29243 15.2719 2.5 11.8864 2.5C6.70242 2.5 2.5 6.70242 2.5 11.8864H4ZM19.7726 11.8863C19.7726 16.2419 16.2418 19.7727 11.8863 19.7727C8.91135 19.7727 6.31975 18.1253 4.97644 15.6909H8.56805V14.1909H3.38623H2.63623V14.9409V20.1227H4.13623V17.183C5.82667 19.6518 8.66657 21.2727 11.8863 21.2727C17.0702 21.2727 21.2726 17.0703 21.2726 11.8863H19.7726Z" fill="white"/>
</svg>
