<svg width="66" height="41" viewBox="0 0 66 41" fill="none" xmlns="http://www.w3.org/2000/svg">
<rect y="0.0268555" width="66" height="40" rx="8" fill="#F5EDFF"/>
<path d="M22.0312 22.7261V23.7925H12.3516V22.7261H16.5352V20.2886H17.8359V22.7261H22.0312ZM12.7734 19.7026C14.8828 19.3511 16.4531 17.9214 16.4883 16.3979H13.1602V15.3315H21.1992V16.3979H17.8594C17.9004 17.9214 19.4707 19.3159 21.6445 19.644L21.1289 20.6753C19.3418 20.353 17.8711 19.4038 17.1855 18.0796C16.5059 19.4214 15.0527 20.3999 13.2891 20.7339L12.7734 19.7026ZM31.5469 14.4761V25.0698H30.2461V14.4761H31.5469ZM22.7695 22.1284C23.6133 22.1226 24.5684 22.1226 25.5703 22.0933V21.1206C24.3809 20.9331 23.6016 20.2065 23.6016 19.1987C23.6016 18.0034 24.6621 17.2124 26.2031 17.2065C27.7617 17.2124 28.8398 18.0034 28.8398 19.1987C28.8398 20.2007 28.0605 20.9214 26.8711 21.1147V22.0464C27.8027 22.0054 28.7402 21.9292 29.625 21.812L29.7188 22.7847C27.3926 23.1772 24.8613 23.2065 22.957 23.2065L22.7695 22.1284ZM22.9922 16.7261V15.6948H25.5703V14.5112H26.8711V15.6948H29.4375V16.7261H22.9922ZM24.8438 19.1987C24.832 19.8081 25.4004 20.1655 26.2031 20.1597C27.0293 20.1655 27.5918 19.8081 27.5859 19.1987C27.5918 18.5835 27.0293 18.2085 26.2031 18.2026C25.4004 18.2085 24.832 18.5835 24.8438 19.1987ZM41.3906 14.4761V18.6948H43.0195V19.7729H41.3906V25.0698H40.1016V14.4761H41.3906ZM33.0352 17.1479V16.105H35.543V14.6284H36.8438V16.105H39.2812V17.1479H33.0352ZM33.5273 20.3354C33.5156 18.8706 34.6523 17.8335 36.1992 17.8394C37.7227 17.8335 38.8535 18.8706 38.8594 20.3354C38.8535 21.7944 37.7227 22.8198 36.1992 22.8198C34.6523 22.8198 33.5156 21.7944 33.5273 20.3354ZM34.7695 20.3354C34.7637 21.1968 35.3672 21.7476 36.1992 21.7417C37.0137 21.7476 37.6055 21.1968 37.6172 20.3354C37.6055 19.4741 37.0137 18.9058 36.1992 18.9058C35.3672 18.9058 34.7637 19.4741 34.7695 20.3354ZM52.3125 14.4761V25.0698H51V14.4761H52.3125ZM43.5352 22.1519C46.3125 20.8335 47.5898 19.0405 47.8242 16.6323H44.0742V15.6011H49.1484C49.1484 18.7534 47.9238 21.4312 44.2148 23.1948L43.5352 22.1519Z" fill="#673BB7"/>
</svg>
