<svg width="30" height="31" viewBox="0 0 30 31" fill="none" xmlns="http://www.w3.org/2000/svg">
<path fill-rule="evenodd" clip-rule="evenodd" d="M20.711 7.36247L22.9167 4.66669L25.4167 13.8334H15.4167L18.0039 10.6712C16.9948 10.2102 15.8761 10.0252 14.7637 10.1425C13.3991 10.2865 12.1203 10.8772 11.1261 11.8229C10.1319 12.7686 9.47807 14.0163 9.26618 15.372C9.05428 16.7277 9.29624 18.1154 9.95443 19.3194C10.6126 20.5234 11.6502 21.4762 12.9057 22.0297C14.1613 22.5831 15.5646 22.7062 16.8973 22.3799C18.2301 22.0535 19.4177 21.2959 20.2755 20.225C21.1333 19.154 21.6132 17.8296 21.6406 16.4577L25.8313 16.5415C25.7854 18.8371 24.9824 21.0532 23.547 22.8452C22.1117 24.6373 20.1244 25.905 17.8943 26.4511C15.6642 26.9972 13.3161 26.7912 11.2151 25.8651C9.11411 24.939 7.37798 23.3446 6.27663 21.33C5.17527 19.3153 4.7704 16.9933 5.12497 14.7248C5.47953 12.4563 6.57366 10.3685 8.23724 8.786C9.90083 7.20351 12.0406 6.215 14.324 5.97415C16.5484 5.73953 18.7875 6.22724 20.711 7.36247Z" fill="#035795"/>
</svg>
