<svg width="16" height="16" viewBox="0 0 16 16" fill="none" xmlns="http://www.w3.org/2000/svg">
<path d="M8 8C9.65685 8 11 6.65685 11 5C11 3.34315 9.65685 2 8 2C6.34315 2 5 3.34315 5 5C5 6.65685 6.34315 8 8 8Z" fill="#D2D6DB" stroke="#D2D6DB" stroke-width="1.5" stroke-linecap="round" stroke-linejoin="round"/>
<path d="M9.6665 10.3333H6.33317C5.4028 10.3333 4.93761 10.3333 4.55908 10.4482C3.70681 10.7067 3.03986 11.3736 2.78133 12.2259C2.76407 12.2828 2.74941 12.3416 2.73695 12.4037C2.64786 12.8477 2.60331 13.0697 2.69203 13.3265C2.76098 13.5261 2.94899 13.7556 3.13113 13.8625C3.36549 14 3.66583 14 4.2665 14H11.7332C12.3338 14 12.6342 14 12.8685 13.8625C13.0507 13.7556 13.2387 13.5261 13.3076 13.3265C13.3964 13.0697 13.3518 12.8477 13.2627 12.4037C13.2503 12.3416 13.2356 12.2828 13.2183 12.2259C12.9598 11.3736 12.2929 10.7067 11.4406 10.4482C11.0621 10.3333 10.5969 10.3333 9.6665 10.3333Z" fill="#D2D6DB" stroke="#D2D6DB" stroke-width="1.5" stroke-linecap="round" stroke-linejoin="round"/>
</svg>
