<svg width="213" height="20" viewBox="0 0 213 20" fill="none" xmlns="http://www.w3.org/2000/svg">
<rect width="20" height="20" fill="#0B6CB6"/>
<path d="M4 9.82609L8.71429 14L16 6" stroke="white"/>
<path d="M38.9375 3.91211V16.1621H37.6934V9.80469H36.1758V15.5742H34.959V4.24023H36.1758V8.75195H37.6934V3.91211H38.9375ZM33.7422 5.4707C33.7285 8.69727 32.6621 11.582 29.1621 13.5645L28.4102 12.6621C31.1309 11.124 32.2793 9.03906 32.4844 6.53711H28.9297V5.4707H33.7422ZM50.709 3.92578V12.8262H49.4102V3.92578H50.709ZM51.0781 14.8496V15.9023H42.6973V11.9238H44.0098V14.8496H51.0781ZM44.0645 4.74609C45.9102 4.74609 47.3184 6.00391 47.3184 7.78125C47.3184 9.58594 45.9102 10.8301 44.0645 10.8301C42.2188 10.8301 40.7969 9.58594 40.7969 7.78125C40.7969 6.00391 42.2188 4.74609 44.0645 4.74609ZM44.0645 5.88086C42.916 5.88086 42.0684 6.66016 42.0684 7.78125C42.0684 8.92969 42.916 9.69531 44.0645 9.69531C45.1855 9.69531 46.0469 8.92969 46.0469 7.78125C46.0469 6.66016 45.1855 5.88086 44.0645 5.88086ZM62.8633 3.91211V11.1992H61.5645V8.0957H59.2812V7.0293H61.5645V3.91211H62.8633ZM58.7617 11.541C61.332 11.541 62.9043 12.3887 62.9043 13.8516C62.9043 15.3145 61.332 16.1484 58.7617 16.1621C56.1914 16.1484 54.6055 15.3145 54.6191 13.8516C54.6055 12.3887 56.1914 11.541 58.7617 11.541ZM58.7617 12.5527C56.9707 12.5527 55.9043 13.0176 55.9043 13.8516C55.9043 14.6719 56.9707 15.1504 58.7617 15.1367C60.5527 15.1504 61.6191 14.6719 61.6191 13.8516C61.6191 13.0176 60.5527 12.5527 58.7617 12.5527ZM57.0391 6.07227C57.0391 7.63086 58.1465 9.13477 59.9922 9.76367L59.3223 10.7891C57.9482 10.3105 56.9365 9.33301 56.4102 8.12305C55.8701 9.49707 54.7969 10.5977 53.334 11.1309L52.6504 10.0918C54.5508 9.43555 55.7129 7.78125 55.7129 6.08594V5.8125H53.0605V4.75977H59.6641V5.8125H57.0391V6.07227ZM75.9609 13.5645V14.6445H64.75V13.5645H69.6855V11.0488H66.0352V4.74609H67.334V6.85156H73.3496V4.74609H74.6348V11.0488H70.9707V13.5645H75.9609ZM67.334 9.99609H73.3496V7.9043H67.334V9.99609ZM86.543 4.99219C86.5293 6.61914 88.5254 8.15039 90.9316 8.46484L90.4258 9.53125C88.4229 9.20996 86.6592 8.1709 85.873 6.72852C85.0664 8.17773 83.3096 9.20996 81.3203 9.53125L80.8008 8.46484C83.207 8.15039 85.1758 6.63281 85.1895 4.99219V4.32227H86.543V4.99219ZM91.4375 10.7344V11.8008H86.4609V16.1621H85.1895V11.8008H80.2676V10.7344H91.4375ZM96.9062 5.86719C96.9062 7.38477 98.0957 8.80664 99.9824 9.35352L99.3262 10.3652C97.8975 9.93457 96.8174 8.99805 96.2637 7.79492C95.71 9.08008 94.6162 10.0986 93.1465 10.584L92.4902 9.55859C94.3906 8.9707 95.5801 7.48047 95.5938 5.86719V5.73047H92.8457V4.67773H99.5996V5.73047H96.9062V5.86719ZM102.525 3.91211V10.543H101.227V3.91211H102.525ZM95.7852 11.1172V12.4844H101.24V11.1172H102.525V16.0117H94.5137V11.1172H95.7852ZM95.7852 14.959H101.24V13.5098H95.7852V14.959ZM114.352 4.69141V9.72266H108.527V4.69141H114.352ZM109.799 5.73047V8.71094H113.066V5.73047H109.799ZM118.029 3.91211V10.9121H116.744V3.91211H118.029ZM118.316 11.7051V12.6895H114.734C114.823 13.7559 116.525 14.8701 118.754 15.123L118.316 16.1211C116.396 15.8955 114.816 15.0684 114.078 13.9883C113.326 15.082 111.713 15.8818 109.785 16.1211L109.334 15.123C111.562 14.9111 113.306 13.7832 113.395 12.6895H109.826V11.7051H113.422V10.5566H114.707V11.7051H118.316ZM133.547 3.91211V16.1895H132.248V3.91211H133.547ZM126.998 4.82812C128.816 4.82812 130.156 6.49609 130.156 9.12109C130.156 11.7598 128.816 13.4277 126.998 13.4277C125.152 13.4277 123.826 11.7598 123.826 9.12109C123.826 6.49609 125.152 4.82812 126.998 4.82812ZM126.998 5.99023C125.863 5.99023 125.084 7.19336 125.084 9.12109C125.084 11.0625 125.863 12.2656 126.998 12.2656C128.119 12.2656 128.898 11.0625 128.898 9.12109C128.898 7.19336 128.119 5.99023 126.998 5.99023ZM146.672 9.88672V10.9395H135.502V9.88672H138.182V8.23242C137.238 7.84961 136.705 7.23438 136.705 6.42773C136.705 4.97852 138.387 4.13086 141.08 4.13086C143.76 4.13086 145.455 4.97852 145.455 6.42773C145.455 7.23438 144.915 7.85645 143.965 8.23242V9.88672H146.672ZM141.08 11.7734C143.719 11.7734 145.305 12.5527 145.305 13.9473C145.305 15.3691 143.719 16.1348 141.08 16.1348C138.414 16.1348 136.828 15.3691 136.828 13.9473C136.828 12.5527 138.414 11.7734 141.08 11.7734ZM141.08 12.7715C139.207 12.7715 138.141 13.1953 138.141 13.9473C138.141 14.7129 139.207 15.1504 141.08 15.1367C142.926 15.1504 144.006 14.7129 144.006 13.9473C144.006 13.1953 142.926 12.7715 141.08 12.7715ZM141.08 5.12891C139.18 5.12891 138.031 5.60742 138.045 6.42773C138.031 7.24805 139.18 7.71289 141.08 7.71289C142.98 7.71289 144.115 7.24805 144.115 6.42773C144.115 5.60742 142.98 5.12891 141.08 5.12891ZM139.494 9.88672H142.68V8.57422C142.201 8.65625 141.661 8.69727 141.08 8.69727C140.506 8.69727 139.973 8.65625 139.494 8.58789V9.88672ZM162.203 9.87305V10.9121H151.02V9.87305H155.982V8.57422H152.414V4.47266H160.822V5.49805H153.699V7.53516H160.904V8.57422H157.24V9.87305H162.203ZM156.598 11.7051C159.236 11.7051 160.822 12.5117 160.822 13.9336C160.822 15.3555 159.236 16.1484 156.598 16.1621C153.945 16.1484 152.346 15.3555 152.346 13.9336C152.346 12.5117 153.945 11.7051 156.598 11.7051ZM156.598 12.7168C154.725 12.7168 153.658 13.1543 153.658 13.9336C153.658 14.7129 154.725 15.1504 156.598 15.1367C158.443 15.1504 159.523 14.7129 159.523 13.9336C159.523 13.1543 158.443 12.7168 156.598 12.7168ZM167.111 4.78711C169.053 4.77344 170.434 5.97656 170.447 7.69922C170.434 9.42188 169.053 10.625 167.111 10.625C165.184 10.625 163.762 9.42188 163.775 7.69922C163.762 5.97656 165.184 4.77344 167.111 4.78711ZM167.111 5.9082C165.922 5.9082 165.047 6.61914 165.061 7.69922C165.047 8.7793 165.922 9.49023 167.111 9.49023C168.301 9.49023 169.176 8.7793 169.176 7.69922C169.176 6.61914 168.301 5.9082 167.111 5.9082ZM173.25 3.91211V16.1895H171.951V3.91211H173.25ZM163.188 12.4707C165.416 12.4707 168.506 12.4434 171.186 12.0605L171.281 13.0039C168.506 13.5371 165.539 13.5508 163.352 13.5508L163.188 12.4707ZM179.375 11.2266C179.389 8.65625 180.113 6.50977 181.398 4.67773H182.738C181.795 6.03125 180.893 8.79297 180.893 11.2266C180.893 13.6738 181.795 16.4219 182.738 17.7891H181.398C180.113 15.957 179.389 13.8105 179.375 11.2266ZM193.826 3.91211V10.2422H192.514V3.91211H193.826ZM193.826 10.8027V13.8379H187.004V15H194.25V16.0391H185.732V12.8945H192.541V11.8281H185.691V10.8027H193.826ZM190.832 4.71875V5.74414H189.656V8.64258C190.251 8.60156 190.839 8.54688 191.393 8.47852L191.447 9.42188C189 9.79102 186.143 9.87305 183.996 9.87305L183.846 8.83398L185.336 8.82031V5.74414H184.174V4.71875H190.832ZM186.58 8.79297C187.182 8.77246 187.797 8.75195 188.412 8.71094V5.74414H186.58V8.79297ZM202.016 4.99219C202.002 6.61914 203.998 8.15039 206.404 8.46484L205.898 9.53125C203.896 9.20996 202.132 8.1709 201.346 6.72852C200.539 8.17773 198.782 9.20996 196.793 9.53125L196.273 8.46484C198.68 8.15039 200.648 6.63281 200.662 4.99219V4.32227H202.016V4.99219ZM206.91 10.7344V11.8008H201.934V16.1621H200.662V11.8008H195.74V10.7344H206.91ZM211.203 11.2266C211.189 13.8105 210.465 15.957 209.18 17.7891H207.84C208.783 16.4219 209.686 13.6738 209.686 11.2266C209.686 8.79297 208.783 6.03125 207.84 4.67773H209.18C210.465 6.50977 211.189 8.65625 211.203 11.2266Z" fill="#1F2A37"/>
</svg>
