<svg width="49" height="20" viewBox="0 0 49 20" fill="none" xmlns="http://www.w3.org/2000/svg">
<rect x="0.75" width="48" height="20" rx="10" fill="#035795"/>
<path d="M9.69141 14V6.92969H14.125V7.85742H10.7656V9.99609H13.8906V10.9141H10.7656V13.0723H14.1641V14H9.69141ZM16.0684 6.92969L18.0312 12.6816H18.1094L20.0723 6.92969H21.2344L18.6855 14H17.4453L14.9062 6.92969H16.0684ZM22.1328 14V6.92969H26.5664V7.85742H23.207V9.99609H26.332V10.9141H23.207V13.0723H26.6055V14H22.1328ZM33.5879 6.92969V14H32.6016L29.0176 8.83398H28.959V14H27.8848V6.92969H28.8809L32.4648 12.1055H32.5332V6.92969H33.5879ZM34.6816 7.85742V6.92969H40.1602V7.85742H37.9629V14H36.8887V7.85742H34.6816Z" fill="white"/>
</svg>
