<svg width="52" height="50" viewBox="0 0 52 50" fill="none" xmlns="http://www.w3.org/2000/svg">
<path d="M8.5 1C10.9 1 11.5 3.33333 11.5 4.5V5.7044H40.5V4.5C40.5 2.1 42.5 1.16667 43.5 1H47.5C50.3 1 51 3.33333 51 4.5V36.5C51 45.7 42.6667 48.6667 38.5 49H13.5C4.3 49 1.33333 40.6667 1 36.5V4.5C1 1.7 3.33333 1 4.5 1H8.5Z" fill="#0B6CB6"/>
<path d="M11.5 5.7044C11.5 14.7427 11.5 31.4416 11.5 34.5C11.5 37.7 14.8333 38.8333 16.5 39C21.1667 39 31.5 39 35.5 39C39.5 39 40.5 36 40.5 34.5C40.5 26.4134 40.5 10.5766 40.5 5.7044M11.5 5.7044C11.5 5.28579 11.5 4.88362 11.5 4.5C11.5 3.33333 10.9 1 8.5 1C6.1 1 4.83333 1 4.5 1C3.33333 1 1 1.7 1 4.5C1 7.3 1 27 1 36.5C1.33333 40.6667 4.3 49 13.5 49C22.7 49 34 49 38.5 49C42.6667 48.6667 51 45.7 51 36.5C51 27.3 51 11.3333 51 4.5C51 3.33333 50.3 1 47.5 1C44.7 1 43.6667 1 43.5 1C42.5 1.16667 40.5 2.1 40.5 4.5C40.5 4.74358 40.5 5.15404 40.5 5.7044M11.5 5.7044H40.5" stroke="#063B62"/>
</svg>
