<svg width="18" height="18" viewBox="0 0 18 18" fill="none" xmlns="http://www.w3.org/2000/svg">
<path d="M2.25 6.6C2.25 5.33988 2.25 4.70982 2.49524 4.22852C2.71095 3.80516 3.05516 3.46095 3.47852 3.24524C3.95982 3 4.58988 3 5.85 3H12.15C13.4101 3 14.0402 3 14.5215 3.24524C14.9448 3.46095 15.289 3.80516 15.5048 4.22852C15.75 4.70982 15.75 5.33988 15.75 6.6V12.9C15.75 14.1601 15.75 14.7902 15.5048 15.2715C15.289 15.6948 14.9448 16.039 14.5215 16.2548C14.0402 16.5 13.4101 16.5 12.15 16.5H5.85C4.58988 16.5 3.95982 16.5 3.47852 16.2548C3.05516 16.039 2.71095 15.6948 2.49524 15.2715C2.25 14.7902 2.25 14.1601 2.25 12.9V6.6Z" fill="#D2D6DB"/>
<path d="M12 1.5V4.5M6 1.5V4.5M5.85 16.5H12.15C13.4101 16.5 14.0402 16.5 14.5215 16.2548C14.9448 16.039 15.289 15.6948 15.5048 15.2715C15.75 14.7902 15.75 14.1601 15.75 12.9V6.6C15.75 5.33988 15.75 4.70982 15.5048 4.22852C15.289 3.80516 14.9448 3.46095 14.5215 3.24524C14.0402 3 13.4101 3 12.15 3H5.85C4.58988 3 3.95982 3 3.47852 3.24524C3.05516 3.46095 2.71095 3.80516 2.49524 4.22852C2.25 4.70982 2.25 5.33988 2.25 6.6V12.9C2.25 14.1601 2.25 14.7902 2.49524 15.2715C2.71095 15.6948 3.05516 16.039 3.47852 16.2548C3.95982 16.5 4.58988 16.5 5.85 16.5Z" stroke="#D2D6DB" stroke-width="1.5" stroke-linecap="round" stroke-linejoin="round"/>
<path d="M15.5 7L2.5 7" stroke="white" stroke-width="2" stroke-linecap="square" stroke-linejoin="round"/>
</svg>
