<svg width="44" height="44" viewBox="0 0 44 44" fill="none" xmlns="http://www.w3.org/2000/svg">
<rect x="0.5" y="0.5" width="43" height="43" rx="21.5" fill="white"/>
<rect x="0.5" y="0.5" width="43" height="43" rx="21.5" stroke="#E5E7EB"/>
<path d="M28.75 22V25.15C28.75 26.4101 28.75 27.0402 28.5048 27.5215C28.289 27.9448 27.9448 28.289 27.5215 28.5048C27.0402 28.75 26.4101 28.75 25.15 28.75H18.85C17.5899 28.75 16.9598 28.75 16.4785 28.5048C16.0552 28.289 15.711 27.9448 15.4952 27.5215C15.25 27.0402 15.25 26.4101 15.25 25.15V22M25 18.25L22 15.25M22 15.25L19 18.25M22 15.25V24.25" stroke="#0B6CB6" stroke-width="1.5" stroke-linecap="round" stroke-linejoin="round"/>
</svg>
