<svg width="355" height="398" viewBox="0 0 355 398" fill="none" xmlns="http://www.w3.org/2000/svg">
<path d="M0 0H355V196C355 197.105 354.096 197.979 353.013 198.197C348.442 199.119 345 203.158 345 208C345 212.842 348.442 216.881 353.013 217.803C354.096 218.021 355 218.895 355 220V386C355 392.627 349.627 398 343 398H12C5.37258 398 0 392.627 0 386V220C0 218.895 0.904452 218.021 1.98723 217.803C6.55783 216.881 10 212.842 10 208C10 203.158 6.55783 199.119 1.98723 198.197C0.904452 197.979 0 197.105 0 196V0Z" fill="white"/>
<path d="M11 208H343.5" stroke="#9DA4AE" stroke-dasharray="2 2"/>
</svg>
